<svg id="Camada_1" data-name="Camada 1" xmlns="http://www.w3.org/2000/svg" viewBox="0 0 50 50"><defs><style>.cls-1{fill:#fff;}</style></defs><title>checked</title><path class="cls-1" d="M25,0A25,25,0,1,0,50,25,25,25,0,0,0,25,0Zm0,45.31A20.31,20.31,0,1,1,45.31,25,20.31,20.31,0,0,1,25,45.31Zm9.83-30.94a2.18,2.18,0,0,0-3,.84L23.41,30.27l-4.67-5.68c-.84-1-2-1.48-3-.85a2.31,2.31,0,0,0-.81,3.15l6.5,7.91A2.68,2.68,0,0,0,23,35.91h.06c.13,0,2.09.38,2.94-1.13l9.62-17.29A2.35,2.35,0,0,0,34.83,14.37Z"/></svg>