<svg id="Camada_1" data-name="Camada 1" xmlns="http://www.w3.org/2000/svg" viewBox="0 0 50 50"><defs><style>.cls-1{fill:#fff;}</style></defs><title>error</title><path class="cls-1" d="M25,50A25,25,0,0,1,7.32,7.32,25,25,0,0,1,42.68,42.68,24.86,24.86,0,0,1,25,50ZM25,4.65A20.35,20.35,0,0,0,10.62,39.38,20.34,20.34,0,0,0,39.38,10.62,20.18,20.18,0,0,0,25,4.65Z"/><path class="cls-1" d="M34.61,37A2.34,2.34,0,0,1,33,36.27l-8-8-8,8A2.32,2.32,0,1,1,13.73,33l8-8-8-8A2.33,2.33,0,1,1,17,13.73l8,8,8-8A2.33,2.33,0,1,1,36.27,17l-8,8,8,8a2.32,2.32,0,0,1,0,3.29A2.26,2.26,0,0,1,34.61,37Z"/></svg>