<svg id="Camada_1" data-name="Camada 1" xmlns="http://www.w3.org/2000/svg" viewBox="0 0 50 50"><defs><style>.cls-1{fill:#32338d;}</style></defs><title>groupe users</title><path class="cls-1" d="M50,33.83v-.15a13.37,13.37,0,0,0-4-9.74,13.64,13.64,0,0,0-4.1-2.83,8.21,8.21,0,1,0-12.14-11,10.31,10.31,0,0,0-9.58,0,8.2,8.2,0,0,0-14.74,5,8.13,8.13,0,0,0,2.61,6A14.66,14.66,0,0,0,4,24a13.86,13.86,0,0,0-4,9.71v.68H3.43v-.68A10.33,10.33,0,0,1,13.75,23.34a12.62,12.62,0,0,1,2.21.22,10.46,10.46,0,0,0,2.4,3.15A17.59,17.59,0,0,0,13,30.32a17,17,0,0,0-5,12.1v.68h3.92v-.68A13.07,13.07,0,0,1,23.54,29.36a3.42,3.42,0,0,0,.45,0l.28,0h1.46l.28,0,.35,0h0A13.09,13.09,0,0,1,38.12,42.42v.68H42v-.68a17,17,0,0,0-5-12.1,16.69,16.69,0,0,0-5.37-3.62A10.16,10.16,0,0,0,34,23.56a11.73,11.73,0,0,1,2.21-.22A10.33,10.33,0,0,1,46.57,33.66v.68H50v-.43h0ZM14.91,19.76a4.45,4.45,0,0,1-1.16.15,4.85,4.85,0,0,1,0-9.7,4.92,4.92,0,0,1,3.86,1.91A10.06,10.06,0,0,0,14.89,19C14.89,19.26,14.89,19.5,14.91,19.76ZM19.16,21a.89.89,0,0,1-.07-.19,5.9,5.9,0,0,1-.28-1.75v-.6a6.22,6.22,0,0,1,1-2.79A5.6,5.6,0,0,1,21.51,14a6.1,6.1,0,0,1,3.55-1.09A6.72,6.72,0,0,1,28.63,14a6.07,6.07,0,0,1,2.68,4.42,2.74,2.74,0,0,0,0,.43,1.94,1.94,0,0,1,0,.24,6,6,0,0,1-.27,1.73A1.31,1.31,0,0,1,31,21c0,.09-.07.17-.09.24a6.26,6.26,0,0,1-5.2,4h-.11a2.37,2.37,0,0,1-.56,0,3,3,0,0,1-.65-.05,6.37,6.37,0,0,1-5.15-4C19.23,21.18,19.19,21.1,19.16,21Zm13.29-8.83a4.92,4.92,0,0,1,3.86-1.91,4.82,4.82,0,1,1,0,9.64,5.29,5.29,0,0,1-1.16-.13c0-.24,0-.47,0-.71A10,10,0,0,0,32.45,12.18Z"/></svg>