<svg id="Camada_1" data-name="Camada 1" xmlns="http://www.w3.org/2000/svg" viewBox="0 0 50 50"><defs><style>.cls-1{fill:#32338d;}</style></defs><title>shopping-bag</title><path class="cls-1" d="M45.13,42.63,42.35,11.3a2,2,0,0,0-2-1.85H35.26a10.29,10.29,0,0,0-20.52,0H9.66a2,2,0,0,0-2,1.85L4.85,42.84c0,3.95,3.58,7.16,8,7.16H37.17c4.4,0,8-3.21,8-7.16A.9.9,0,0,0,45.13,42.63Zm-8,3.32H12.83c-2.13,0-3.9-1.37-3.93-3l2.61-29.45H14.7v3.41a2,2,0,0,0,4.05,0V13.51H31.24v3.41a2,2,0,0,0,4.05,0V13.51h3.19L41.1,42.89C41.07,44.58,39.3,46,37.17,46ZM25,4.05a6.3,6.3,0,0,1,6.19,5.4H18.81A6.3,6.3,0,0,1,25,4.05Z"/></svg>