<svg id="Camada_1" data-name="Camada 1" xmlns="http://www.w3.org/2000/svg" viewBox="0 0 50 50"><defs><style>.cls-1{fill:#32338d;}</style></defs><title>star</title><path class="cls-1" d="M48.64,23.51A4.37,4.37,0,0,0,46.24,16L34.58,14.36c-.19,0-.29-.1-.38-.29L29,3.48A4.35,4.35,0,0,0,25.05,1,4.48,4.48,0,0,0,21,3.48L15.8,14.07c0,.19-.19.29-.38.29L3.76,16.09a4.24,4.24,0,0,0-3.56,3A4.36,4.36,0,0,0,1.36,23.6l8.38,8.19c.19.1.19.29.19.48l-2,11.56a4.35,4.35,0,0,0,1.73,4.33,4.22,4.22,0,0,0,2.6.87,5.26,5.26,0,0,0,2.12-.48l10.4-5.49a.35.35,0,0,1,.29-.1c.09,0,.19.1.29.1l10.4,5.49a4.8,4.8,0,0,0,2,.48,4.22,4.22,0,0,0,2.6-.87,4.5,4.5,0,0,0,1.73-4.33l-2-11.56a.78.78,0,0,1,.19-.48Zm-37,21,2-11.55a4.34,4.34,0,0,0-1.25-4L4,20.81a.62.62,0,0,1-.1-.58.65.65,0,0,1,.48-.38L16,18.11a4.4,4.4,0,0,0,3.37-2.4l5.2-10.6a.53.53,0,0,1,.48-.29c.19,0,.38.2.19.29l5.2,10.6a4.62,4.62,0,0,0,3.37,2.4l11.66,1.74c.28,0,.38.19.48.38a.47.47,0,0,1-.1.58L37.47,29a4.34,4.34,0,0,0-1.25,4l2,11.55a.43.43,0,0,1-.19.58.35.35,0,0,1-.29.1c-.1,0-.19-.1-.29-.1l-10.4-5.49a4.8,4.8,0,0,0-2-.48,6.12,6.12,0,0,0-2.22.48l-10.4,5.49a.34.34,0,0,1-.29.1.36.36,0,0,1-.29-.1A.71.71,0,0,1,11.66,44.5Z"/></svg>