<svg id="Camada_1" data-name="Camada 1" xmlns="http://www.w3.org/2000/svg" viewBox="0 0 50 50"><defs><style>.cls-1{fill:#fff;}</style></defs><title>traffic cone</title><path class="cls-1" d="M44.91,39.78h-2.3L31,4.37a6.3,6.3,0,0,0-12,0L7.34,39.78H5.09A5.1,5.1,0,0,0,5.09,50H44.91a5.1,5.1,0,0,0,0-10.19ZM31.46,15.25h-13l1.32-4H30.14Zm1,2.93,2.13,6.45H15.41l2.12-6.45Zm3.09,9.38,1.32,4H13.12l1.32-4ZM25,3a3.35,3.35,0,0,1,3.2,2.32l1,3h-8.4l1-3A3.37,3.37,0,0,1,25,3ZM12.16,34.51H37.79l1.74,5.27H10.43ZM44.91,47H5.09a2.17,2.17,0,0,1,0-4.33H44.91a2.17,2.17,0,0,1,0,4.33Z"/></svg>