<svg id="Camada_1" data-name="Camada 1" xmlns="http://www.w3.org/2000/svg" viewBox="0 0 50 50"><defs><style>.cls-1{fill:#2b2b2b;}</style></defs><title>warning</title><path class="cls-1" d="M25,34.27a2.57,2.57,0,1,0,0,5.13,2.57,2.57,0,0,0,0-5.13Z"/><path class="cls-1" d="M48.78,43.37a8.74,8.74,0,0,0,0-8.88L32.71,6.62a8.87,8.87,0,0,0-15.4,0L1.19,34.51A8.91,8.91,0,0,0,8.9,47.85H41.05A8.84,8.84,0,0,0,48.78,43.37Zm-3.49-2A4.87,4.87,0,0,1,41,43.81H8.89a4.79,4.79,0,0,1-4.19-2.4,4.88,4.88,0,0,1,0-4.9L20.81,8.61a4.84,4.84,0,0,1,8.4,0l16.11,27.9A4.81,4.81,0,0,1,45.29,41.36Z"/><path class="cls-1" d="M24.36,16.23a2.79,2.79,0,0,0-2,2.8c.06.82.11,1.64.17,2.45.18,3.09.35,6.13.53,9.22A1.88,1.88,0,0,0,25,32.51a1.92,1.92,0,0,0,1.92-1.87c0-.64,0-1.23.06-1.87q.18-3,.35-5.95c.06-1.29.18-2.57.24-3.86a3.07,3.07,0,0,0-.24-1.28A2.57,2.57,0,0,0,24.36,16.23Z"/></svg>